<svg width="42" height="43" viewBox="0 0 42 43" fill="none" xmlns="http://www.w3.org/2000/svg">
<g clip-path="url(#clip0_109_778)">
<path d="M9.51428 20.906H33.6532V41.3231C33.6532 42.7927 32.1992 43.8207 30.8127 43.3313L21.5838 40.0743L12.3548 43.3313C10.9683 43.8207 9.51428 42.7927 9.51428 41.3231V20.906Z" fill="#FFC800"/>
<path d="M12.9886 34.5543C19.6096 39.2988 28.8255 37.7807 33.5728 31.1633C38.32 24.546 36.801 15.3353 30.1799 10.5908C23.5588 5.84622 14.3429 7.36441 9.59566 13.9818C4.84841 20.5991 6.36746 29.8097 12.9886 34.5543Z" fill="#FFD900"/>
<path d="M12.9884 34.5542C19.6096 39.2988 28.8254 37.7807 33.5726 31.1633L9.59557 13.9817C4.84832 20.5991 6.36737 29.8097 12.9884 34.5542Z" fill="#FEEA66"/>
<path d="M20.4068 27.3659C20.4068 28.2136 20.9416 28.7296 21.6976 28.7296C22.4351 28.7296 22.9883 28.2136 22.9883 27.3659V17.5435C22.9883 16.6036 22.4351 15.9771 21.5501 15.9771C20.96 15.9771 20.4622 16.2166 19.9828 16.5483L18.0098 17.9121C17.5672 18.2069 17.3644 18.6123 17.3644 18.9993C17.3644 19.6259 17.8438 20.0866 18.4339 20.0866C18.692 20.0866 18.9686 20.0129 19.2083 19.847L20.37 19.0546H20.4068V27.3659Z" fill="#FF9600"/>
<path d="M13.8839 33.3063C19.8153 37.5566 28.0712 36.1966 32.324 30.2685C36.5767 24.3404 35.2159 16.0892 29.2845 11.8389C23.3531 7.58853 15.0972 8.94858 10.8444 14.8766C6.59165 20.8047 7.95247 29.0559 13.8839 33.3063Z" stroke="#FFC800" stroke-width="3"/>
</g>
<defs>
<clipPath id="clip0_109_778">
<rect width="42" height="43" fill="white"/>
</clipPath>
</defs>
</svg>
