<svg width="42" height="43" viewBox="0 0 42 43" fill="none" xmlns="http://www.w3.org/2000/svg">
<g clip-path="url(#clip0_109_719)">
<path d="M8.51474 18.906H32.6538V39.3231C32.6538 40.7927 31.1997 41.8207 29.8131 41.3313L20.5842 38.0743L11.3554 41.3313C9.96879 41.8207 8.51474 40.7927 8.51474 39.3231V18.906Z" fill="#AAC1D4"/>
<path d="M11.9887 32.5543C18.6098 37.2988 27.8257 35.7807 32.5729 29.1633C37.3202 22.546 35.8011 13.3353 29.18 8.59078C22.559 3.84622 13.3431 5.36441 8.59584 11.9818C3.84859 18.5991 5.36764 27.8097 11.9887 32.5543Z" fill="#C2D1DD"/>
<path d="M11.9887 32.5542C18.6098 37.2988 27.8256 35.7807 32.5729 29.1633L8.59578 11.9817C3.84853 18.5991 5.36758 27.8097 11.9887 32.5542Z" fill="#D6E4EF"/>
<path d="M16.3977 25.5133C16.3977 26.1583 16.8587 26.619 17.5963 26.619H23.3492C24.1052 26.619 24.5293 26.1767 24.5293 25.5317C24.5293 24.8683 24.1052 24.426 23.3492 24.426H19.8274V24.3892L23.128 20.5007C23.9024 19.5793 24.4003 18.6579 24.4003 17.46C24.4003 15.4329 22.9252 13.8849 20.5465 13.8849C18.3154 13.8849 16.914 15.138 16.6374 16.4833C16.619 16.5939 16.6006 16.7045 16.6006 16.7966C16.6006 17.4785 17.0984 17.9392 17.7622 17.9392C18.2785 17.9392 18.6657 17.6443 18.9239 17.1099C19.2558 16.428 19.7168 16.0595 20.4359 16.0595C21.321 16.0595 21.8188 16.6676 21.8188 17.4969C21.8188 18.1419 21.5607 18.6579 21.0812 19.2292L17.1722 23.91C16.6006 24.5919 16.3977 24.9789 16.3977 25.5133Z" fill="#849FB5"/>
<path d="M12.8844 31.3063C18.8158 35.5566 27.0717 34.1966 31.3245 28.2685C35.5772 22.3404 34.2164 14.0892 28.285 9.83888C22.3536 5.58853 14.0977 6.94858 9.84493 12.8766C5.59217 18.8047 6.95299 27.0559 12.8844 31.3063Z" stroke="#AAC1D4" stroke-width="3"/>
</g>
<defs>
<clipPath id="clip0_109_719">
<rect width="42" height="43" fill="white"/>
</clipPath>
</defs>
</svg>
