<svg width="42" height="43" viewBox="0 0 42 43" fill="none" xmlns="http://www.w3.org/2000/svg">
<g clip-path="url(#clip0_109_805)">
<path d="M8.51425 19.9298H32.6533V39.3231C32.6533 40.7927 31.1992 41.8207 29.8127 41.3313L20.5838 38.0743L11.3549 41.3313C9.9683 41.8207 8.51425 40.7927 8.51425 39.3231V19.9298Z" fill="#D7975D"/>
<path d="M11.9886 32.5543C18.6096 37.2988 27.8255 35.7807 32.5728 29.1633C37.32 22.546 35.801 13.3353 29.1799 8.59078C22.5588 3.84623 13.3429 5.36441 8.59566 11.9818C3.84841 18.5991 5.36746 27.8097 11.9886 32.5543Z" fill="#E5AE7C"/>
<path d="M11.9884 32.5542C18.6095 37.2988 27.8253 35.7807 32.5726 29.1633L8.59553 11.9817C3.84828 18.5991 5.36733 27.8097 11.9884 32.5542Z" fill="#F7BE8B"/>
<path d="M16.8039 24.9052C17.3386 26.1215 18.6662 26.8217 20.4732 26.8217C22.8334 26.8217 24.5667 25.2737 24.5667 22.9886C24.5667 21.3485 23.7001 20.3349 22.9256 19.9663V19.9295C23.8291 19.3397 24.327 18.4183 24.327 17.3495C24.327 15.3407 22.9072 13.8849 20.4548 13.8849C18.6478 13.8849 17.3939 14.7142 16.933 15.7646C16.8408 15.9857 16.7854 16.2069 16.7854 16.4096C16.7854 17.073 17.2649 17.5522 17.9287 17.5522C18.3896 17.5522 18.8322 17.2942 19.0719 16.815C19.2563 16.428 19.6066 16.0595 20.3442 16.0595C21.1924 16.0595 21.7455 16.6492 21.7455 17.5337C21.7455 18.492 21.1555 19.0817 20.3257 19.0817H20.1967C19.5329 19.0817 19.0719 19.524 19.0719 20.169C19.0719 20.814 19.5329 21.2563 20.1967 21.2563H20.3257C21.2292 21.2563 21.9852 21.9197 21.9852 23.007C21.9852 23.9653 21.3952 24.6472 20.4364 24.6472C19.791 24.6472 19.3116 24.3523 19.0166 23.8732C18.7215 23.394 18.2974 23.136 17.8365 23.136C17.1173 23.136 16.6748 23.6336 16.6748 24.2786C16.6748 24.4813 16.7117 24.7025 16.8039 24.9052Z" fill="#CD7900"/>
<path d="M12.8839 31.3063C18.8153 35.5566 27.0712 34.1966 31.324 28.2685C35.5767 22.3404 34.2159 14.0892 28.2845 9.83888C22.3531 5.58853 14.0972 6.94858 9.84444 12.8766C5.59168 18.8047 6.9525 27.0559 12.8839 31.3063Z" stroke="#D7975D" stroke-width="3"/>
</g>
<defs>
<clipPath id="clip0_109_805">
<rect width="42" height="43" fill="white"/>
</clipPath>
</defs>
</svg>
