<svg width="237" height="150" viewBox="0 0 237 150" fill="none" xmlns="http://www.w3.org/2000/svg">
<g clip-path="url(#clip0_108_2)">
<path d="M6.49309 64.2515L45.3584 41.8136C51.3953 38.3281 59.1151 40.397 62.6008 46.4334L79.6613 75.9808C88.5688 91.4077 83.2829 111.134 67.8548 120.041L62.9958 122.846C47.5687 131.752 27.84 126.467 18.9325 111.04L1.87292 81.4926C-1.61284 75.4562 0.456247 67.737 6.49309 64.2515Z" fill="#CF9C6D"/>
<path d="M36.3773 46.9988L45.3487 41.8198C51.3855 38.3343 59.1186 40.4264 62.6213 46.492L68.7335 57.0781L50.2955 126.986C38.268 128.249 26.0389 122.639 19.3133 111.698L36.3773 46.9988Z" fill="#D3A67B"/>
<path d="M15.8453 105.692C23.2322 112.842 29.5735 116.787 34.8701 117.527C40.1666 118.269 49.3643 116.498 62.4641 112.216C69.8972 104.649 74.4162 98.5003 76.0211 93.7704C77.6259 89.0414 77.8106 81.3293 76.5741 70.6331L79.6622 75.9808C88.5696 91.4077 83.2838 111.134 67.8557 120.041L62.9967 122.846C47.5695 131.752 27.8408 126.467 18.9334 111.04L15.8453 105.692Z" fill="#C88E57"/>
<path d="M19.9568 109.433C25.6129 114.229 30.5837 116.928 34.8692 117.527C38.8662 118.086 45.0859 117.217 53.5256 114.914L50.3408 126.988C38.2848 128.286 26.038 122.69 19.3488 111.739L19.9568 109.433Z" fill="#CD9968"/>
<path d="M9.92559 70.9322C9.38338 71.2459 8.90827 71.6634 8.52739 72.1607C8.14651 72.658 7.86732 73.2255 7.70577 73.8307C7.54422 74.4359 7.50346 75.067 7.58583 75.6879C7.66819 76.3089 7.87207 76.9075 8.18582 77.4497L23.1914 103.438C29.783 114.854 44.366 118.775 55.7633 112.196L62.2484 108.452C73.6457 101.872 77.5407 87.2831 70.9491 75.8663L55.9435 49.8781C55.3119 48.7821 54.2707 47.9819 53.049 47.6535C51.8274 47.3251 50.5253 47.4954 49.4291 48.1269L9.92559 70.9322ZM6.17443 64.4352L45.678 41.6299C51.5391 38.2464 59.0387 40.263 62.4295 46.1343L77.4342 72.1225C86.0976 87.1278 80.9785 106.301 66.0005 114.949L59.5145 118.693C44.5356 127.34 25.3696 122.187 16.7054 107.182L1.70072 81.1935C-1.69007 75.3222 0.313335 67.8177 6.17443 64.4352Z" fill="#E5AE7C"/>
<path d="M22.057 101.472L23.1914 103.437C29.4475 114.272 42.9014 118.357 53.9987 113.12L51.682 121.901C39.9296 124.935 27.2452 120.854 19.4828 111.233L22.057 101.472ZM66.0582 67.3961L55.9435 49.879C55.312 48.7829 54.2709 47.9825 53.0492 47.6539C51.8275 47.3253 50.5254 47.4955 49.4291 48.1269L33.7374 57.1855L36.4323 46.9677L45.678 41.6299C51.5391 38.2464 59.0387 40.263 62.4295 46.1343L68.7699 57.1163L66.0582 67.3961Z" fill="#E7B689"/>
<path d="M191.566 41.8136L230.431 64.2515C236.468 67.737 238.537 75.4562 235.052 81.4926L217.991 111.04C209.084 126.467 189.356 131.752 173.928 122.846L169.069 120.041C153.642 111.134 148.355 91.4077 157.262 75.9808L174.323 46.4334C177.809 40.397 185.528 38.3281 191.565 41.8136H191.566Z" fill="#C2D1DD"/>
<path d="M221.45 59.0662L230.422 64.2452C236.459 67.7307 238.513 75.473 235.011 81.5387L228.899 92.1248L159.134 111.112C152.025 101.327 150.77 87.9337 156.883 76.6384L221.45 59.0662Z" fill="#D1DCE5"/>
<path d="M160.351 70.6331C157.853 80.6041 157.606 88.0677 159.613 93.0248C161.619 97.9819 167.752 105.062 178.01 114.264C188.28 116.918 195.865 117.757 200.764 116.782C205.662 115.807 212.434 112.11 221.08 105.692L217.992 111.04C209.085 126.467 189.357 131.752 173.929 122.846L169.07 120.041C153.643 111.134 148.356 91.4077 157.263 75.9808L160.351 70.6331Z" fill="#AAC1D4"/>
<path d="M159.167 76.0633C157.84 83.3592 157.988 89.013 159.613 93.0248C161.126 96.766 164.99 101.715 171.204 107.874L159.155 111.153C152.002 101.362 150.726 87.9586 156.865 76.6899L159.167 76.0633Z" fill="#BFD0DE"/>
<path d="M187.496 48.1269C186.4 47.4955 185.098 47.3253 183.876 47.6539C182.655 47.9825 181.613 48.7829 180.982 49.879L165.976 75.8671C159.385 87.2831 163.28 101.873 174.677 108.452L181.162 112.196C192.559 118.776 207.142 114.854 213.734 103.437L228.74 77.4488C229.373 76.3539 229.546 75.0523 229.219 73.8303C228.893 72.6082 228.095 71.5658 227 70.9322L187.496 48.1269ZM191.247 41.6299L230.751 64.4352C236.612 67.8186 238.616 75.3222 235.225 81.1935L220.22 107.182C211.557 122.187 192.39 127.34 177.411 118.693L170.925 114.949C155.947 106.301 150.827 87.1278 159.491 72.1225L174.496 46.1343C177.887 40.263 185.386 38.2464 191.247 41.6299Z" fill="#D6E4EF"/>
<path d="M167.112 73.9011L165.976 75.8662C159.72 86.7017 162.91 100.395 172.994 107.386L164.231 109.771C155.727 101.11 152.918 88.0846 157.371 76.5523L167.112 73.9011ZM218.625 94.9668L228.74 77.4497C229.053 76.9075 229.257 76.3088 229.34 75.6879C229.422 75.0669 229.381 74.4358 229.22 73.8306C229.058 73.2254 228.779 72.658 228.398 72.1607C228.017 71.6633 227.542 71.2459 227 70.9322L211.307 61.8727L221.505 59.0973L230.751 64.4352C236.612 67.8186 238.616 75.3221 235.225 81.1934L228.884 92.1754L218.625 94.9668Z" fill="#E0EAF3"/>
<path d="M84.2552 7.27141L79.2339 2.25054C77.5007 0.51744 74.6906 0.51744 72.9574 2.25054L67.9361 7.27141C66.2029 9.00451 66.2029 11.8144 67.9361 13.5475L72.9574 18.5684C74.6906 20.3015 77.5007 20.3015 79.2339 18.5684L84.2552 13.5475C85.9884 11.8144 85.9884 9.00451 84.2552 7.27141Z" fill="#FFF1BF"/>
<path d="M69.299 25.1563L64.2778 20.1355C63.5845 19.4422 62.4604 19.4422 61.7672 20.1355L56.7459 25.1563C56.0526 25.8496 56.0526 26.9735 56.7459 27.6668L61.7672 32.6877C62.4604 33.3809 63.5845 33.3809 64.2778 32.6877L69.299 27.6668C69.9923 26.9735 69.9923 25.8496 69.299 25.1563Z" fill="#FEE68C"/>
<path d="M172.132 136.857L167.11 131.836C165.377 130.103 162.567 130.103 160.834 131.836L155.813 136.857C154.079 138.59 154.079 141.4 155.813 143.133L160.834 148.154C162.567 149.887 165.377 149.887 167.11 148.154L172.132 143.133C173.865 141.4 173.865 138.59 172.132 136.857Z" fill="#FFF1BF"/>
<path d="M89.2434 31.0651H147.757C156.846 31.0651 164.213 38.4319 164.213 47.5207V91.0828C164.213 114.308 145.384 133.136 122.157 133.136H114.843C91.616 133.136 72.7865 114.308 72.7865 91.0828V47.5207C72.7865 38.4319 80.1539 31.0651 89.2434 31.0651Z" fill="#FEC701"/>
<path d="M134.234 31.0651H147.741C156.829 31.0651 164.197 38.4018 164.197 47.4515V63.2467L97.802 129.564C83.3974 123.206 73.2481 109.029 72.7865 92.4408L134.234 31.0651Z" fill="#FED540"/>
<path d="M72.7865 83.4799C76.4658 96.252 81.054 104.764 86.5512 109.014C92.0483 113.266 103.589 117.226 121.172 120.896C134.498 117.231 143.609 113.27 148.504 109.014C153.399 104.759 158.636 96.2476 164.213 83.4799V91.0828C164.213 114.308 145.384 133.136 122.157 133.136H114.843C91.616 133.136 72.7865 114.308 72.7865 91.0828V83.4799Z" fill="#FFC100"/>
<path d="M74.9905 90.3213C78.2482 99.3426 82.1023 105.574 86.5512 109.014C90.6991 112.222 98.2884 115.265 109.319 118.142L97.8748 129.573C83.5065 123.231 73.3582 109.079 72.8096 92.4994L74.9905 90.3213Z" fill="#FFD040"/>
<path d="M88.764 40.7591C85.3324 40.7591 82.5506 43.5204 82.5506 46.9278V85.7023C82.5506 102.737 96.4599 116.546 113.618 116.546H123.382C140.54 116.546 154.449 102.737 154.449 85.7023V46.9278C154.449 43.5204 151.668 40.7591 148.236 40.7591H88.764ZM88.764 31.0651H148.236C157.06 31.0651 164.213 38.1665 164.213 46.9278V85.7023C164.213 108.091 145.933 126.24 123.382 126.24H113.618C91.0675 126.24 72.7865 108.091 72.7865 85.7023V46.9278C72.7865 38.1674 79.94 31.0651 88.764 31.0651Z" fill="#FEE333"/>
<path d="M82.5506 82.7707V85.7023C82.5506 101.869 95.0796 115.131 111.023 116.439L102.684 124.77C87.4344 120.572 75.7725 107.811 73.2809 92.029L82.5506 82.7707ZM154.449 73.0651V46.9278C154.449 43.5204 151.668 40.7591 148.236 40.7591H124.611L134.318 31.0651H148.236C157.06 31.0651 164.213 38.1665 164.213 46.9278V63.3124L154.449 73.0651Z" fill="#FEEA66"/>
<path d="M202.206 67C200.392 67 198.921 68.4609 198.921 70.2625V92.7375C198.921 94.5391 200.392 96 202.206 96C204.02 96 205.491 94.5391 205.491 92.7375V70.2625C205.491 68.4609 204.02 67 202.206 67ZM186.876 67.725C186.62 67.7213 186.371 67.8065 186.172 67.9661C185.973 68.1256 185.836 68.3493 185.786 68.5983C185.736 68.8474 185.775 69.1061 185.896 69.3295C186.018 69.553 186.214 69.7271 186.452 69.8217C186.587 69.8754 186.731 69.9021 186.876 69.9H189.197L177.388 80.3248C177.277 80.4184 177.185 80.5332 177.119 80.6626C177.053 80.7919 177.013 80.9332 177.003 81.0779C176.99 81.2591 177.023 81.4407 177.099 81.6061C177.174 81.7714 177.291 81.9153 177.437 82.0245C177.583 82.1337 177.755 82.2049 177.936 82.2314C178.117 82.2579 178.301 82.2389 178.473 82.1763C178.61 82.1262 178.736 82.0493 178.843 81.9502L190.891 71.3145V73.8875C190.889 74.0316 190.916 74.1746 190.97 74.3083C191.024 74.442 191.104 74.5638 191.206 74.6664C191.36 74.821 191.556 74.9264 191.77 74.9691C191.985 75.0118 192.207 74.9899 192.408 74.9061C192.61 74.8223 192.782 74.6806 192.902 74.499C193.022 74.3175 193.084 74.1045 193.081 73.8875V68.8125C193.081 68.6697 193.053 68.5282 192.998 68.3963C192.943 68.2643 192.862 68.1444 192.76 68.0434C192.659 67.9424 192.538 67.8623 192.405 67.8077C192.272 67.7531 192.13 67.725 191.986 67.725H186.876ZM191.621 77.875C189.807 77.875 188.336 79.3359 188.336 81.1375V92.7375C188.336 94.5391 189.807 96 191.621 96C193.435 96 194.906 94.5391 194.906 92.7375V81.1375C194.906 79.3359 193.435 77.875 191.621 77.875ZM181.036 84.4C179.221 84.4 177.75 85.8609 177.75 87.6625V92.7375C177.75 94.5391 179.221 96 181.036 96C182.85 96 184.321 94.5391 184.321 92.7375V87.6625C184.321 85.8609 182.85 84.4 181.036 84.4Z" fill="#D6E4EF"/>
<path d="M202.206 67C200.392 67 198.921 68.4609 198.921 70.2625V92.7375C198.921 94.5391 200.392 96 202.206 96C204.02 96 205.491 94.5391 205.491 92.7375V70.2625C205.491 68.4609 204.02 67 202.206 67ZM186.876 67.725C186.62 67.7213 186.371 67.8065 186.172 67.9661C185.973 68.1256 185.836 68.3493 185.786 68.5983C185.736 68.8474 185.775 69.1061 185.896 69.3295C186.018 69.553 186.214 69.7271 186.452 69.8217C186.587 69.8754 186.731 69.9021 186.876 69.9H189.197L177.388 80.3248C177.277 80.4184 177.185 80.5332 177.119 80.6626C177.053 80.7919 177.013 80.9332 177.003 81.0779C176.99 81.2591 177.023 81.4407 177.099 81.6061C177.174 81.7714 177.291 81.9153 177.437 82.0245C177.583 82.1337 177.755 82.2049 177.936 82.2314C178.117 82.2579 178.301 82.2389 178.473 82.1763C178.61 82.1262 178.736 82.0493 178.843 81.9502L190.891 71.3145V73.8875C190.889 74.0316 190.916 74.1746 190.97 74.3083C191.024 74.442 191.104 74.5638 191.206 74.6664C191.36 74.821 191.556 74.9264 191.77 74.9691C191.985 75.0118 192.207 74.9899 192.408 74.9061C192.61 74.8223 192.782 74.6806 192.902 74.499C193.022 74.3175 193.084 74.1045 193.081 73.8875V68.8125C193.081 68.6697 193.053 68.5282 192.998 68.3963C192.943 68.2643 192.862 68.1444 192.76 68.0434C192.659 67.9424 192.538 67.8623 192.405 67.8077C192.272 67.7531 192.13 67.725 191.986 67.725H186.876ZM181.036 84.4C179.221 84.4 177.75 85.8609 177.75 87.6625V92.7375C177.75 94.5391 179.221 96 181.036 96C182.85 96 184.321 94.5391 184.321 92.7375V87.6625C184.321 85.8609 182.85 84.4 181.036 84.4Z" fill="#D6E4EF"/>
<path d="M53.2061 67C51.392 67 49.921 68.4609 49.921 70.2625V92.7375C49.921 94.5391 51.392 96 53.2061 96C55.0202 96 56.4912 94.5391 56.4912 92.7375V70.2625C56.4912 68.4609 55.0202 67 53.2061 67ZM37.8757 67.725C37.62 67.7213 37.371 67.8065 37.1719 67.9661C36.9728 68.1256 36.8363 68.3493 36.7859 68.5983C36.7356 68.8474 36.7746 69.1061 36.8963 69.3295C37.0179 69.553 37.2145 69.7271 37.4519 69.8217C37.5865 69.8754 37.7306 69.9021 37.8757 69.9H40.1969L28.3884 80.3248C28.2767 80.4184 28.1851 80.5332 28.1188 80.6626C28.0526 80.7919 28.0131 80.9332 28.0028 81.0779C27.9898 81.2591 28.0227 81.4407 28.0985 81.6061C28.1743 81.7714 28.2907 81.9153 28.4369 82.0245C28.5831 82.1337 28.7545 82.2049 28.9355 82.2314C29.1165 82.2579 29.3013 82.2389 29.473 82.1763C29.6102 82.1262 29.7359 82.0493 29.8427 81.9502L41.8908 71.3145V73.8875C41.8889 74.0316 41.9157 74.1746 41.9698 74.3083C42.024 74.442 42.1042 74.5638 42.206 74.6664C42.3595 74.821 42.556 74.9264 42.7703 74.9691C42.9846 75.0118 43.2069 74.9899 43.4085 74.9061C43.6101 74.8223 43.7819 74.6806 43.9017 74.499C44.0215 74.3175 44.0839 74.1045 44.0809 73.8875V68.8125C44.0809 68.6697 44.0526 68.5282 43.9976 68.3963C43.9426 68.2643 43.8619 68.1444 43.7602 68.0434C43.6586 67.9424 43.5378 67.8623 43.4049 67.8077C43.2721 67.7531 43.1297 67.725 42.9859 67.725H37.8757ZM42.6208 77.875C40.8067 77.875 39.3358 79.3359 39.3358 81.1375V92.7375C39.3358 94.5391 40.8067 96 42.6208 96C44.4349 96 45.9059 94.5391 45.9059 92.7375V81.1375C45.9059 79.3359 44.4349 77.875 42.6208 77.875ZM32.0355 84.4C30.2214 84.4 28.7505 85.8609 28.7505 87.6625V92.7375C28.7505 94.5391 30.2214 96 32.0355 96C33.8496 96 35.3206 94.5391 35.3206 92.7375V87.6625C35.3206 85.8609 33.8496 84.4 32.0355 84.4Z" fill="#E7B689"/>
<path d="M53.2061 67C51.392 67 49.921 68.4609 49.921 70.2625V92.7375C49.921 94.5391 51.392 96 53.2061 96C55.0202 96 56.4912 94.5391 56.4912 92.7375V70.2625C56.4912 68.4609 55.0202 67 53.2061 67ZM37.8757 67.725C37.62 67.7213 37.371 67.8065 37.1719 67.9661C36.9728 68.1256 36.8363 68.3493 36.7859 68.5983C36.7356 68.8474 36.7746 69.1061 36.8963 69.3295C37.0179 69.553 37.2145 69.7271 37.4519 69.8217C37.5865 69.8754 37.7306 69.9021 37.8757 69.9H40.1969L28.3884 80.3248C28.2767 80.4184 28.1851 80.5332 28.1188 80.6626C28.0526 80.7919 28.0131 80.9332 28.0028 81.0779C27.9898 81.2591 28.0227 81.4407 28.0985 81.6061C28.1743 81.7714 28.2907 81.9153 28.4369 82.0245C28.5831 82.1337 28.7545 82.2049 28.9355 82.2314C29.1165 82.2579 29.3013 82.2389 29.473 82.1763C29.6102 82.1262 29.7359 82.0493 29.8427 81.9502L41.8908 71.3145V73.8875C41.8889 74.0316 41.9157 74.1746 41.9698 74.3083C42.024 74.442 42.1042 74.5638 42.206 74.6664C42.3595 74.821 42.556 74.9264 42.7703 74.9691C42.9846 75.0118 43.2069 74.9899 43.4085 74.9061C43.6101 74.8223 43.7819 74.6806 43.9017 74.499C44.0215 74.3175 44.0839 74.1045 44.0809 73.8875V68.8125C44.0809 68.6697 44.0526 68.5282 43.9976 68.3963C43.9426 68.2643 43.8619 68.1444 43.7602 68.0434C43.6586 67.9424 43.5378 67.8623 43.4049 67.8077C43.2721 67.7531 43.1297 67.725 42.9859 67.725H37.8757ZM32.0355 84.4C30.2214 84.4 28.7505 85.8609 28.7505 87.6625V92.7375C28.7505 94.5391 30.2214 96 32.0355 96C33.8496 96 35.3206 94.5391 35.3206 92.7375V87.6625C35.3206 85.8609 33.8496 84.4 32.0355 84.4Z" fill="#E7B689"/>
<path d="M129.206 60C127.392 60 125.921 61.4609 125.921 63.2625V85.7375C125.921 87.5391 127.392 89 129.206 89C131.02 89 132.491 87.5391 132.491 85.7375V63.2625C132.491 61.4609 131.02 60 129.206 60ZM113.876 60.725C113.62 60.7213 113.371 60.8065 113.172 60.9661C112.973 61.1256 112.836 61.3493 112.786 61.5983C112.736 61.8474 112.775 62.1061 112.896 62.3295C113.018 62.553 113.214 62.7271 113.452 62.8217C113.587 62.8754 113.731 62.9021 113.876 62.9H116.197L104.388 73.3248C104.277 73.4184 104.185 73.5332 104.119 73.6626C104.053 73.7919 104.013 73.9332 104.003 74.0779C103.99 74.2591 104.023 74.4407 104.099 74.6061C104.174 74.7714 104.291 74.9153 104.437 75.0245C104.583 75.1337 104.755 75.2049 104.936 75.2314C105.117 75.2579 105.301 75.2389 105.473 75.1763C105.61 75.1262 105.736 75.0493 105.843 74.9502L117.891 64.3145V66.8875C117.889 67.0316 117.916 67.1746 117.97 67.3083C118.024 67.442 118.104 67.5638 118.206 67.6664C118.36 67.821 118.556 67.9264 118.77 67.9691C118.985 68.0118 119.207 67.9899 119.408 67.9061C119.61 67.8223 119.782 67.6806 119.902 67.499C120.022 67.3175 120.084 67.1045 120.081 66.8875V61.8125C120.081 61.6697 120.053 61.5282 119.998 61.3963C119.943 61.2643 119.862 61.1444 119.76 61.0434C119.659 60.9424 119.538 60.8623 119.405 60.8077C119.272 60.7531 119.13 60.725 118.986 60.725H113.876ZM118.621 70.875C116.807 70.875 115.336 72.3359 115.336 74.1375V85.7375C115.336 87.5391 116.807 89 118.621 89C120.435 89 121.906 87.5391 121.906 85.7375V74.1375C121.906 72.3359 120.435 70.875 118.621 70.875ZM108.036 77.4C106.221 77.4 104.75 78.8609 104.75 80.6625V85.7375C104.75 87.5391 106.221 89 108.036 89C109.85 89 111.321 87.5391 111.321 85.7375V80.6625C111.321 78.8609 109.85 77.4 108.036 77.4Z" fill="#F89701"/>
<path d="M129.206 60C127.392 60 125.921 61.4609 125.921 63.2625V85.7375C125.921 87.5391 127.392 89 129.206 89C131.02 89 132.491 87.5391 132.491 85.7375V63.2625C132.491 61.4609 131.02 60 129.206 60ZM113.876 60.725C113.62 60.7213 113.371 60.8065 113.172 60.9661C112.973 61.1256 112.836 61.3493 112.786 61.5983C112.736 61.8474 112.775 62.1061 112.896 62.3295C113.018 62.553 113.214 62.7271 113.452 62.8217C113.587 62.8754 113.731 62.9021 113.876 62.9H116.197L104.388 73.3248C104.277 73.4184 104.185 73.5332 104.119 73.6626C104.053 73.7919 104.013 73.9332 104.003 74.0779C103.99 74.2591 104.023 74.4407 104.099 74.6061C104.174 74.7714 104.291 74.9153 104.437 75.0245C104.583 75.1337 104.755 75.2049 104.936 75.2314C105.117 75.2579 105.301 75.2389 105.473 75.1763C105.61 75.1262 105.736 75.0493 105.843 74.9502L117.891 64.3145V66.8875C117.889 67.0316 117.916 67.1746 117.97 67.3083C118.024 67.442 118.104 67.5638 118.206 67.6664C118.36 67.821 118.556 67.9264 118.77 67.9691C118.985 68.0118 119.207 67.9899 119.408 67.9061C119.61 67.8223 119.782 67.6806 119.902 67.499C120.022 67.3175 120.084 67.1045 120.081 66.8875V61.8125C120.081 61.6697 120.053 61.5282 119.998 61.3963C119.943 61.2643 119.862 61.1444 119.76 61.0434C119.659 60.9424 119.538 60.8623 119.405 60.8077C119.272 60.7531 119.13 60.725 118.986 60.725H113.876ZM108.036 77.4C106.221 77.4 104.75 78.8609 104.75 80.6625V85.7375C104.75 87.5391 106.221 89 108.036 89C109.85 89 111.321 87.5391 111.321 85.7375V80.6625C111.321 78.8609 109.85 77.4 108.036 77.4Z" fill="#F89701"/>
</g>
<defs>
<clipPath id="clip0_108_2">
<rect width="237" height="150" fill="white"/>
</clipPath>
</defs>
</svg>
