<svg width="342" height="77" viewBox="0 0 342 77" fill="none" xmlns="http://www.w3.org/2000/svg">
<path d="M101.909 30.5C101.591 29.3939 101.144 28.4167 100.568 27.5682C99.9924 26.7045 99.2879 25.9773 98.4545 25.3864C97.6364 24.7803 96.697 24.3182 95.6364 24C94.5909 23.6818 93.4318 23.5227 92.1591 23.5227C89.7803 23.5227 87.6894 24.1136 85.8864 25.2955C84.0985 26.4773 82.7045 28.197 81.7045 30.4545C80.7045 32.697 80.2045 35.4394 80.2045 38.6818C80.2045 41.9242 80.697 44.6818 81.6818 46.9545C82.6667 49.2273 84.0606 50.9621 85.8636 52.1591C87.6667 53.3409 89.7955 53.9318 92.25 53.9318C94.4773 53.9318 96.3788 53.5379 97.9545 52.75C99.5455 51.947 100.758 50.8182 101.591 49.3636C102.439 47.9091 102.864 46.1894 102.864 44.2045L104.864 44.5H92.8636V37.0909H112.341V42.9545C112.341 47.0455 111.477 50.5606 109.75 53.5C108.023 56.4242 105.644 58.6818 102.614 60.2727C99.5833 61.8485 96.1136 62.6364 92.2045 62.6364C87.8409 62.6364 84.0076 61.6742 80.7045 59.75C77.4015 57.8106 74.8258 55.0606 72.9773 51.5C71.1439 47.9242 70.2273 43.6818 70.2273 38.7727C70.2273 35 70.7727 31.6364 71.8636 28.6818C72.9697 25.7121 74.5152 23.197 76.5 21.1364C78.4848 19.0758 80.7955 17.5076 83.4318 16.4318C86.0682 15.3561 88.9242 14.8182 92 14.8182C94.6364 14.8182 97.0909 15.2045 99.3636 15.9773C101.636 16.7348 103.652 17.8106 105.409 19.2045C107.182 20.5985 108.629 22.2576 109.75 24.1818C110.871 26.0909 111.591 28.197 111.909 30.5H101.909ZM121.739 62V27.0909H131.42V62H121.739ZM126.602 22.5909C125.163 22.5909 123.928 22.1136 122.898 21.1591C121.883 20.1894 121.375 19.0303 121.375 17.6818C121.375 16.3485 121.883 15.2045 122.898 14.25C123.928 13.2803 125.163 12.7955 126.602 12.7955C128.042 12.7955 129.269 13.2803 130.284 14.25C131.314 15.2045 131.83 16.3485 131.83 17.6818C131.83 19.0303 131.314 20.1894 130.284 21.1591C129.269 22.1136 128.042 22.5909 126.602 22.5909ZM157.744 27.0909V34.3636H136.722V27.0909H157.744ZM141.494 18.7273H151.176V51.2727C151.176 52.1667 151.313 52.8636 151.585 53.3636C151.858 53.8485 152.237 54.1894 152.722 54.3864C153.222 54.5833 153.797 54.6818 154.449 54.6818C154.903 54.6818 155.358 54.6439 155.812 54.5682C156.267 54.4773 156.616 54.4091 156.858 54.3636L158.381 61.5682C157.896 61.7197 157.214 61.8939 156.335 62.0909C155.456 62.303 154.388 62.4318 153.131 62.4773C150.797 62.5682 148.752 62.2576 146.994 61.5455C145.252 60.8333 143.896 59.7273 142.926 58.2273C141.956 56.7273 141.479 54.8333 141.494 52.5455V18.7273Z" fill="#1E2237"/>
<path d="M189.483 28.8409C189.301 27.0076 188.521 25.5833 187.142 24.5682C185.763 23.553 183.892 23.0455 181.528 23.0455C179.922 23.0455 178.566 23.2727 177.46 23.7273C176.354 24.1667 175.506 24.7803 174.915 25.5682C174.339 26.3561 174.051 27.25 174.051 28.25C174.021 29.0833 174.195 29.8106 174.574 30.4318C174.968 31.053 175.506 31.5909 176.188 32.0455C176.869 32.4848 177.657 32.8712 178.551 33.2045C179.445 33.5227 180.4 33.7955 181.415 34.0227L185.597 35.0227C187.627 35.4773 189.491 36.0833 191.188 36.8409C192.884 37.5985 194.354 38.5303 195.597 39.6364C196.839 40.7424 197.801 42.0455 198.483 43.5455C199.18 45.0455 199.536 46.7652 199.551 48.7045C199.536 51.553 198.809 54.0227 197.369 56.1136C195.945 58.1894 193.884 59.803 191.188 60.9545C188.506 62.0909 185.271 62.6591 181.483 62.6591C177.725 62.6591 174.453 62.0833 171.665 60.9318C168.892 59.7803 166.725 58.0758 165.165 55.8182C163.619 53.5455 162.809 50.7348 162.733 47.3864H172.256C172.362 48.947 172.809 50.25 173.597 51.2955C174.4 52.3258 175.468 53.1061 176.801 53.6364C178.15 54.1515 179.672 54.4091 181.369 54.4091C183.036 54.4091 184.483 54.1667 185.71 53.6818C186.953 53.197 187.915 52.5227 188.597 51.6591C189.278 50.7955 189.619 49.803 189.619 48.6818C189.619 47.6364 189.309 46.7576 188.688 46.0455C188.081 45.3333 187.188 44.7273 186.006 44.2273C184.839 43.7273 183.407 43.2727 181.71 42.8636L176.642 41.5909C172.718 40.6364 169.619 39.1439 167.347 37.1136C165.074 35.0833 163.945 32.3485 163.96 28.9091C163.945 26.0909 164.695 23.6288 166.21 21.5227C167.741 19.4167 169.839 17.7727 172.506 16.5909C175.172 15.4091 178.203 14.8182 181.597 14.8182C185.051 14.8182 188.066 15.4091 190.642 16.5909C193.233 17.7727 195.248 19.4167 196.688 21.5227C198.127 23.6288 198.869 26.0682 198.915 28.8409H189.483ZM221.761 62.6818C218.186 62.6818 215.11 61.9242 212.534 60.4091C209.973 58.8788 208.004 56.7576 206.625 54.0455C205.261 51.3333 204.58 48.2121 204.58 44.6818C204.58 41.1061 205.269 37.9697 206.648 35.2727C208.042 32.5606 210.019 30.447 212.58 28.9318C215.14 27.4015 218.186 26.6364 221.716 26.6364C224.761 26.6364 227.428 27.1894 229.716 28.2955C232.004 29.4015 233.814 30.9545 235.148 32.9545C236.481 34.9545 237.216 37.303 237.352 40H228.216C227.958 38.2576 227.277 36.8561 226.17 35.7955C225.08 34.7197 223.648 34.1818 221.875 34.1818C220.375 34.1818 219.064 34.5909 217.943 35.4091C216.837 36.2121 215.973 37.3864 215.352 38.9318C214.731 40.4773 214.42 42.3485 214.42 44.5455C214.42 46.7727 214.723 48.6667 215.33 50.2273C215.951 51.7879 216.822 52.9773 217.943 53.7955C219.064 54.6136 220.375 55.0227 221.875 55.0227C222.981 55.0227 223.973 54.7955 224.852 54.3409C225.746 53.8864 226.481 53.2273 227.057 52.3636C227.648 51.4848 228.034 50.4318 228.216 49.2045H237.352C237.201 51.8712 236.473 54.2197 235.17 56.25C233.883 58.2652 232.102 59.8409 229.83 60.9773C227.557 62.1136 224.867 62.6818 221.761 62.6818ZM259.324 62.6818C255.794 62.6818 252.741 61.9318 250.165 60.4318C247.604 58.9167 245.627 56.8106 244.233 54.1136C242.839 51.4015 242.142 48.2576 242.142 44.6818C242.142 41.0758 242.839 37.9242 244.233 35.2273C245.627 32.5152 247.604 30.4091 250.165 28.9091C252.741 27.3939 255.794 26.6364 259.324 26.6364C262.854 26.6364 265.9 27.3939 268.46 28.9091C271.036 30.4091 273.021 32.5152 274.415 35.2273C275.809 37.9242 276.506 41.0758 276.506 44.6818C276.506 48.2576 275.809 51.4015 274.415 54.1136C273.021 56.8106 271.036 58.9167 268.46 60.4318C265.9 61.9318 262.854 62.6818 259.324 62.6818ZM259.369 55.1818C260.975 55.1818 262.316 54.7273 263.392 53.8182C264.468 52.8939 265.278 51.6364 265.824 50.0455C266.384 48.4545 266.665 46.6439 266.665 44.6136C266.665 42.5833 266.384 40.7727 265.824 39.1818C265.278 37.5909 264.468 36.3333 263.392 35.4091C262.316 34.4848 260.975 34.0227 259.369 34.0227C257.748 34.0227 256.384 34.4848 255.278 35.4091C254.188 36.3333 253.362 37.5909 252.801 39.1818C252.256 40.7727 251.983 42.5833 251.983 44.6136C251.983 46.6439 252.256 48.4545 252.801 50.0455C253.362 51.6364 254.188 52.8939 255.278 53.8182C256.384 54.7273 257.748 55.1818 259.369 55.1818ZM282.801 62V27.0909H292.188V33.1818H292.551C293.188 31.0152 294.256 29.3788 295.756 28.2727C297.256 27.1515 298.983 26.5909 300.938 26.5909C301.422 26.5909 301.945 26.6212 302.506 26.6818C303.066 26.7424 303.559 26.8258 303.983 26.9318V35.5227C303.528 35.3864 302.9 35.2652 302.097 35.1591C301.294 35.053 300.559 35 299.892 35C298.468 35 297.195 35.3106 296.074 35.9318C294.968 36.5379 294.089 37.3864 293.438 38.4773C292.801 39.5682 292.483 40.8258 292.483 42.25V62H282.801ZM323.273 62.6818C319.682 62.6818 316.591 61.9545 314 60.5C311.424 59.0303 309.439 56.9545 308.045 54.2727C306.652 51.5758 305.955 48.3864 305.955 44.7045C305.955 41.1136 306.652 37.9621 308.045 35.25C309.439 32.5379 311.402 30.4242 313.932 28.9091C316.477 27.3939 319.462 26.6364 322.886 26.6364C325.189 26.6364 327.333 27.0076 329.318 27.75C331.318 28.4773 333.061 29.5758 334.545 31.0455C336.045 32.5152 337.212 34.3636 338.045 36.5909C338.879 38.803 339.295 41.3939 339.295 44.3636V47.0227H309.818V41.0227H330.182C330.182 39.6288 329.879 38.3939 329.273 37.3182C328.667 36.2424 327.826 35.4015 326.75 34.7955C325.689 34.1742 324.455 33.8636 323.045 33.8636C321.576 33.8636 320.273 34.2045 319.136 34.8864C318.015 35.553 317.136 36.4545 316.5 37.5909C315.864 38.7121 315.538 39.9621 315.523 41.3409V47.0455C315.523 48.7727 315.841 50.2652 316.477 51.5227C317.129 52.7803 318.045 53.75 319.227 54.4318C320.409 55.1136 321.811 55.4545 323.432 55.4545C324.508 55.4545 325.492 55.303 326.386 55C327.28 54.697 328.045 54.2424 328.682 53.6364C329.318 53.0303 329.803 52.2879 330.136 51.4091L339.091 52C338.636 54.1515 337.705 56.0303 336.295 57.6364C334.902 59.2273 333.098 60.4697 330.886 61.3636C328.689 62.2424 326.152 62.6818 323.273 62.6818Z" fill="#338AF3"/>
<path d="M49.5431 10C45.9775 10 43.0862 12.8714 43.0862 16.4125V60.5875C43.0862 64.1286 45.9775 67 49.5431 67C53.1087 67 56 64.1286 56 60.5875V16.4125C56 12.8714 53.1087 10 49.5431 10ZM19.4109 11.425C18.9082 11.4176 18.4188 11.5853 18.0275 11.8988C17.6363 12.2123 17.3679 12.652 17.2689 13.1415C17.17 13.6311 17.2467 14.1395 17.4858 14.5788C17.7248 15.018 18.1112 15.3602 18.5778 15.5461C18.8425 15.6517 19.1257 15.704 19.4109 15.7H23.9732L0.763341 36.1901C0.543862 36.374 0.363719 36.5998 0.233548 36.854C0.103377 37.1083 0.0258162 37.3859 0.00544414 37.6704C-0.0201119 38.0266 0.044586 38.3835 0.193632 38.7085C0.342677 39.0335 0.571322 39.3162 0.858692 39.5309C1.14606 39.7456 1.483 39.8854 1.83875 39.9375C2.1945 39.9896 2.55773 39.9524 2.89527 39.8292C3.16491 39.7308 3.41197 39.5797 3.62188 39.3849L27.3027 18.4802V23.5375C27.2988 23.8207 27.3516 24.1019 27.458 24.3647C27.5643 24.6275 27.7221 24.8667 27.9222 25.0685C28.2239 25.3723 28.6101 25.5795 29.0313 25.6634C29.4525 25.7474 29.8893 25.7042 30.2856 25.5396C30.6819 25.3749 31.0196 25.0963 31.2551 24.7395C31.4906 24.3827 31.6133 23.9641 31.6073 23.5375V13.5625C31.6073 13.2818 31.5517 13.0038 31.4436 12.7444C31.3354 12.4851 31.1769 12.2494 30.977 12.0509C30.7772 11.8524 30.5399 11.6949 30.2787 11.5876C30.0175 11.4802 29.7376 11.4249 29.455 11.425H19.4109ZM28.7375 31.375C25.1719 31.375 22.2806 34.2464 22.2806 37.7875V60.5875C22.2806 64.1286 25.1719 67 28.7375 67C32.3032 67 35.1944 64.1286 35.1944 60.5875V37.7875C35.1944 34.2464 32.3032 31.375 28.7375 31.375ZM7.93194 44.2C4.36629 44.2 1.47504 47.0714 1.47504 50.6125V60.5875C1.47504 64.1286 4.36629 67 7.93194 67C11.4976 67 14.3888 64.1286 14.3888 60.5875V50.6125C14.3888 47.0714 11.4976 44.2 7.93194 44.2Z" fill="#1E2237"/>
<path d="M49.5431 10C45.9775 10 43.0862 12.8714 43.0862 16.4125V60.5875C43.0862 64.1286 45.9775 67 49.5431 67C53.1087 67 56 64.1286 56 60.5875V16.4125C56 12.8714 53.1087 10 49.5431 10ZM19.4109 11.425C18.9082 11.4176 18.4188 11.5853 18.0275 11.8988C17.6363 12.2123 17.3679 12.652 17.2689 13.1415C17.17 13.6311 17.2467 14.1395 17.4858 14.5788C17.7248 15.018 18.1112 15.3602 18.5778 15.5461C18.8425 15.6517 19.1257 15.704 19.4109 15.7H23.9732L0.763341 36.1901C0.543862 36.374 0.363719 36.5998 0.233548 36.854C0.103377 37.1083 0.0258162 37.3859 0.00544414 37.6704C-0.0201119 38.0266 0.044586 38.3835 0.193632 38.7085C0.342677 39.0335 0.571322 39.3162 0.858692 39.5309C1.14606 39.7456 1.483 39.8854 1.83875 39.9375C2.1945 39.9896 2.55773 39.9524 2.89527 39.8292C3.16491 39.7308 3.41197 39.5797 3.62188 39.3849L27.3027 18.4802V23.5375C27.2988 23.8207 27.3516 24.1019 27.458 24.3647C27.5643 24.6275 27.7221 24.8667 27.9222 25.0685C28.2239 25.3723 28.6101 25.5795 29.0313 25.6634C29.4525 25.7474 29.8893 25.7042 30.2856 25.5396C30.6819 25.3749 31.0196 25.0963 31.2551 24.7395C31.4906 24.3827 31.6133 23.9641 31.6073 23.5375V13.5625C31.6073 13.2818 31.5517 13.0038 31.4436 12.7444C31.3354 12.4851 31.1769 12.2494 30.977 12.0509C30.7772 11.8524 30.5399 11.6949 30.2787 11.5876C30.0175 11.4802 29.7376 11.4249 29.455 11.425H19.4109ZM7.93194 44.2C4.36629 44.2 1.47504 47.0714 1.47504 50.6125V60.5875C1.47504 64.1286 4.36629 67 7.93194 67C11.4976 67 14.3888 64.1286 14.3888 60.5875V50.6125C14.3888 47.0714 11.4976 44.2 7.93194 44.2Z" fill="#338AF3"/>
</svg>
